<?xml version="1.0" encoding="utf-8"?>
<!-- Generator: Adobe Illustrator 23.1.1, SVG Export Plug-In . SVG Version: 6.00 Build 0)  -->
<svg version="1.1" id="Слой_1" xmlns="http://www.w3.org/2000/svg" xmlns:xlink="http://www.w3.org/1999/xlink" x="0px" y="0px"
	 width="391.3px" height="159.9px" viewBox="0 0 391.3 159.9" style="enable-background:new 0 0 391.3 159.9;" xml:space="preserve"
	>
<style type="text/css">
	.st0{fill:#FFFFFF;}
	.st1{fill:#00D787;}
</style>
<path class="st0" d="M241.3,97.9c0,12.8-9,23.7-30.8,23.7h-47.6l0.1-86h46.5c18.6,0,29.8,7.6,29.8,21.4c0,10.1-6.8,18.1-20,19.6
	C232.5,78,241.3,85.6,241.3,97.9z M206.8,69.9c6.9,0,11.6-3.2,11.6-9.6s-4.7-9.6-11.6-9.6H184v19.2H206.8z M207.2,106.1
	c7.9,0,12.3-4.6,12.3-10.7s-4.4-10.7-12.3-10.7h-23.3v21.4L207.2,106.1L207.2,106.1z"/>
<path class="st0" d="M252,78.6c0-28.7,22.2-44.7,50.3-44.7s50.3,16,50.3,44.7s-22.3,44.6-50.3,44.6C274.3,123.2,252,107.3,252,78.6z
	 M302.3,105.5c16.9,0,28.1-10.7,28.1-26.9c0-16.4-11.2-26.9-28.1-26.9s-28,10.5-28,26.9C274.3,94.7,285.4,105.5,302.3,105.5z"/>
<path class="st1" d="M125.8,56.3c6,0,10.9-4.9,10.9-10.9s-4.9-10.9-10.9-10.9H49.6v21.8H125.8z"/>
<path class="st1" d="M125.8,67.2H49.6V89h76.2c6,0,10.9-4.9,10.9-10.9C136.7,72.1,131.8,67.2,125.8,67.2L125.8,67.2z"/>
<path class="st1" d="M125.8,99.9H49.6c-6,0-10.9,4.9-10.9,10.9s4.9,10.9,10.9,10.9h76.2c6,0,10.9-4.9,10.9-10.9
	C136.7,104.8,131.8,99.9,125.8,99.9L125.8,99.9z"/>
</svg>
